<?xml version="1.0" encoding="UTF-8"?>
<!--Generator: Apple Native CoreSVG 149-->
<!DOCTYPE svg
PUBLIC "-//W3C//DTD SVG 1.1//EN"
       "http://www.w3.org/Graphics/SVG/1.1/DTD/svg11.dtd">
<svg version="1.1" xmlns="http://www.w3.org/2000/svg" xmlns:xlink="http://www.w3.org/1999/xlink" width="3300" height="2200">
 <!--glyph: "uni100282.medium", point size: 100.000000, font version: "Version 16.0d18e1", template writer version: "8"-->
 <g id="Notes">
  <rect height="2200" id="artboard" style="fill:white;opacity:1" width="3300" x="0" y="0"/>
  <line id="" style="fill:none;stroke:black;opacity:1;stroke-width:0.5;" x1="263" x2="3036" y1="292" y2="292"/>
  <text style="stroke:none;fill:black;font-family:-apple-system,&quot;SF Pro Display&quot;,&quot;SF Pro Text&quot;,Helvetica,sans-serif;font-weight:bold;" transform="matrix(1 0 0 1 263 322)">Weight/Scale Variations</text>
  <text style="stroke:none;fill:black;font-family:-apple-system,&quot;SF Pro Display&quot;,&quot;SF Pro Text&quot;,Helvetica,sans-serif;text-anchor:middle;" transform="matrix(1 0 0 1 559.711 322)">Ultralight</text>
  <text style="stroke:none;fill:black;font-family:-apple-system,&quot;SF Pro Display&quot;,&quot;SF Pro Text&quot;,Helvetica,sans-serif;text-anchor:middle;" transform="matrix(1 0 0 1 856.422 322)">Thin</text>
  <text style="stroke:none;fill:black;font-family:-apple-system,&quot;SF Pro Display&quot;,&quot;SF Pro Text&quot;,Helvetica,sans-serif;text-anchor:middle;" transform="matrix(1 0 0 1 1153.13 322)">Light</text>
  <text style="stroke:none;fill:black;font-family:-apple-system,&quot;SF Pro Display&quot;,&quot;SF Pro Text&quot;,Helvetica,sans-serif;text-anchor:middle;" transform="matrix(1 0 0 1 1449.84 322)">Regular</text>
  <text style="stroke:none;fill:black;font-family:-apple-system,&quot;SF Pro Display&quot;,&quot;SF Pro Text&quot;,Helvetica,sans-serif;text-anchor:middle;" transform="matrix(1 0 0 1 1746.56 322)">Medium</text>
  <text style="stroke:none;fill:black;font-family:-apple-system,&quot;SF Pro Display&quot;,&quot;SF Pro Text&quot;,Helvetica,sans-serif;text-anchor:middle;" transform="matrix(1 0 0 1 2043.27 322)">Semibold</text>
  <text style="stroke:none;fill:black;font-family:-apple-system,&quot;SF Pro Display&quot;,&quot;SF Pro Text&quot;,Helvetica,sans-serif;text-anchor:middle;" transform="matrix(1 0 0 1 2339.98 322)">Bold</text>
  <text style="stroke:none;fill:black;font-family:-apple-system,&quot;SF Pro Display&quot;,&quot;SF Pro Text&quot;,Helvetica,sans-serif;text-anchor:middle;" transform="matrix(1 0 0 1 2636.69 322)">Heavy</text>
  <text style="stroke:none;fill:black;font-family:-apple-system,&quot;SF Pro Display&quot;,&quot;SF Pro Text&quot;,Helvetica,sans-serif;text-anchor:middle;" transform="matrix(1 0 0 1 2933.4 322)">Black</text>
  <line id="" style="fill:none;stroke:black;opacity:1;stroke-width:0.5;" x1="263" x2="3036" y1="1903" y2="1903"/>
  <g id="" transform="matrix(1 0 0 1 263 1933)">
   <path d="M9.24805 0.830078C13.5547 0.830078 17.1387-2.74414 17.1387-7.05078C17.1387-11.3574 13.5449-14.9316 9.23828-14.9316C4.94141-14.9316 1.36719-11.3574 1.36719-7.05078C1.36719-2.74414 4.95117 0.830078 9.24805 0.830078ZM9.24805-0.654297C5.70312-0.654297 2.87109-3.49609 2.87109-7.05078C2.87109-10.6055 5.69336-13.4473 9.23828-13.4473C12.793-13.4473 15.6348-10.6055 15.6445-7.05078C15.6543-3.49609 12.8027-0.654297 9.24805-0.654297ZM6.39648-6.31836L8.50586-6.31836L8.50586-4.19922C8.50586-3.75977 8.79883-3.45703 9.22852-3.45703C9.67773-3.45703 9.9707-3.75977 9.9707-4.19922L9.9707-6.31836L12.0996-6.31836C12.5391-6.31836 12.8418-6.61133 12.8418-7.04102C12.8418-7.48047 12.5391-7.7832 12.0996-7.7832L9.9707-7.7832L9.9707-9.89258C9.9707-10.3418 9.67773-10.6445 9.22852-10.6445C8.79883-10.6445 8.50586-10.3418 8.50586-9.89258L8.50586-7.7832L6.39648-7.7832C5.94727-7.7832 5.64453-7.48047 5.64453-7.04102C5.64453-6.61133 5.94727-6.31836 6.39648-6.31836Z"/>
  </g>
  <g id="" transform="matrix(1 0 0 1 281.506 1933)">
   <path d="M11.709 2.91016C17.1582 2.91016 21.6699-1.61133 21.6699-7.05078C21.6699-12.5 17.1484-17.0117 11.6992-17.0117C6.25977-17.0117 1.74805-12.5 1.74805-7.05078C1.74805-1.61133 6.26953 2.91016 11.709 2.91016ZM11.709 1.25C7.09961 1.25 3.41797-2.44141 3.41797-7.05078C3.41797-11.6602 7.08984-15.3516 11.6992-15.3516C16.3086-15.3516 20-11.6602 20.0098-7.05078C20.0195-2.44141 16.3184 1.25 11.709 1.25ZM7.98828-6.23047L10.8789-6.23047L10.8789-3.32031C10.8789-2.83203 11.2109-2.5 11.6895-2.5C12.1777-2.5 12.5195-2.83203 12.5195-3.32031L12.5195-6.23047L15.4297-6.23047C15.918-6.23047 16.25-6.5625 16.25-7.04102C16.25-7.5293 15.918-7.87109 15.4297-7.87109L12.5195-7.87109L12.5195-10.7617C12.5195-11.2695 12.1777-11.6016 11.6895-11.6016C11.2109-11.6016 10.8789-11.2598 10.8789-10.7617L10.8789-7.87109L7.98828-7.87109C7.48047-7.87109 7.14844-7.5293 7.14844-7.04102C7.14844-6.5625 7.49023-6.23047 7.98828-6.23047Z"/>
  </g>
  <g id="" transform="matrix(1 0 0 1 304.924 1933)">
   <path d="M14.9707 5.66406C21.9336 5.66406 27.6953-0.0976562 27.6953-7.05078C27.6953-14.0137 21.9238-19.7754 14.9609-19.7754C8.00781-19.7754 2.25586-14.0137 2.25586-7.05078C2.25586-0.0976562 8.01758 5.66406 14.9707 5.66406ZM14.9707 3.84766C8.93555 3.84766 4.08203-1.01562 4.08203-7.05078C4.08203-13.0957 8.92578-17.9492 14.9609-17.9492C21.0059-17.9492 25.8594-13.0957 25.8691-7.05078C25.8789-1.01562 21.0156 3.84766 14.9707 3.84766ZM10.0586-6.14258L14.0625-6.14258L14.0625-2.12891C14.0625-1.5918 14.4336-1.2207 14.9512-1.2207C15.4883-1.2207 15.8594-1.5918 15.8594-2.12891L15.8594-6.14258L19.8828-6.14258C20.4102-6.14258 20.791-6.51367 20.791-7.03125C20.791-7.56836 20.4199-7.94922 19.8828-7.94922L15.8594-7.94922L15.8594-11.9531C15.8594-12.5098 15.4883-12.8809 14.9512-12.8809C14.4336-12.8809 14.0625-12.5 14.0625-11.9531L14.0625-7.94922L10.0586-7.94922C9.50195-7.94922 9.13086-7.56836 9.13086-7.03125C9.13086-6.51367 9.51172-6.14258 10.0586-6.14258Z"/>
  </g>
  <text style="stroke:none;fill:black;font-family:-apple-system,&quot;SF Pro Display&quot;,&quot;SF Pro Text&quot;,Helvetica,sans-serif;font-weight:bold;" transform="matrix(1 0 0 1 263 1953)">Design Variations</text>
  <text style="stroke:none;fill:black;font-family:-apple-system,&quot;SF Pro Display&quot;,&quot;SF Pro Text&quot;,Helvetica,sans-serif;" transform="matrix(1 0 0 1 263 1971)">Symbols are supported in up to nine weights and three scales.</text>
  <text style="stroke:none;fill:black;font-family:-apple-system,&quot;SF Pro Display&quot;,&quot;SF Pro Text&quot;,Helvetica,sans-serif;" transform="matrix(1 0 0 1 263 1989)">For optimal layout with text and other symbols, vertically align</text>
  <text style="stroke:none;fill:black;font-family:-apple-system,&quot;SF Pro Display&quot;,&quot;SF Pro Text&quot;,Helvetica,sans-serif;" transform="matrix(1 0 0 1 263 2007)">symbols with the adjacent text.</text>
  <line id="" style="fill:none;stroke:#00AEEF;stroke-width:0.5;opacity:1.0;" x1="776" x2="776" y1="1919" y2="1933"/>
  <g id="" transform="matrix(1 0 0 1 776 1933)">
   <path d="M3.31055 0.126953C3.82812 0.126953 4.08203-0.0683594 4.26758-0.605469L5.52734-4.0625L11.2891-4.0625L12.5488-0.605469C12.7344-0.0683594 12.9883 0.126953 13.4961 0.126953C14.0137 0.126953 14.3457-0.185547 14.3457-0.673828C14.3457-0.839844 14.3164-0.986328 14.2383-1.20117L9.6582-13.3887C9.43359-13.9941 9.0332-14.2871 8.4082-14.2871C7.80273-14.2871 7.39258-13.9941 7.17773-13.3984L2.59766-1.19141C2.51953-0.976562 2.49023-0.830078 2.49023-0.664062C2.49023-0.175781 2.80273 0.126953 3.31055 0.126953ZM6.00586-5.53711L8.37891-12.1094L8.42773-12.1094L10.8008-5.53711Z"/>
  </g>
  <line id="" style="fill:none;stroke:#00AEEF;stroke-width:0.5;opacity:1.0;" x1="792.836" x2="792.836" y1="1919" y2="1933"/>
  <text style="stroke:none;fill:black;font-family:-apple-system,&quot;SF Pro Display&quot;,&quot;SF Pro Text&quot;,Helvetica,sans-serif;font-weight:bold;" transform="matrix(1 0 0 1 776 1953)">Margins</text>
  <text style="stroke:none;fill:black;font-family:-apple-system,&quot;SF Pro Display&quot;,&quot;SF Pro Text&quot;,Helvetica,sans-serif;" transform="matrix(1 0 0 1 776 1971)">Leading and trailing margins on the left and right side of each symbol</text>
  <text style="stroke:none;fill:black;font-family:-apple-system,&quot;SF Pro Display&quot;,&quot;SF Pro Text&quot;,Helvetica,sans-serif;" transform="matrix(1 0 0 1 776 1989)">can be adjusted by modifying the x-location of the margin guidelines.</text>
  <text style="stroke:none;fill:black;font-family:-apple-system,&quot;SF Pro Display&quot;,&quot;SF Pro Text&quot;,Helvetica,sans-serif;" transform="matrix(1 0 0 1 776 2007)">Modifications are automatically applied proportionally to all</text>
  <text style="stroke:none;fill:black;font-family:-apple-system,&quot;SF Pro Display&quot;,&quot;SF Pro Text&quot;,Helvetica,sans-serif;" transform="matrix(1 0 0 1 776 2025)">scales and weights.</text>
  <g id="" transform="matrix(1 0 0 1 1289 1933)">
   <path d="M2.8418 1.86523L4.54102 3.57422C5.40039 4.44336 6.38672 4.38477 7.31445 3.35938L17.4902-7.85156C17.7539-7.76367 18.0273-7.7832 18.3398-7.8418L19.4043-8.03711L20.0684-7.36328L20.0293-6.80664C19.9902-6.30859 20.1172-5.92773 20.6055-5.44922L21.3672-4.70703C21.8457-4.22852 22.4609-4.19922 22.9297-4.66797L25.8398-7.58789C26.3086-8.05664 26.2891-8.65234 25.8105-9.13086L25.0391-9.89258C24.5605-10.3711 24.1895-10.5273 23.7109-10.4883L23.1348-10.4395L22.4902-11.0742L22.7344-12.1973C22.8613-12.7637 22.7051-13.2031 22.1191-13.7891L19.9219-15.9766C16.582-19.2969 12.1484-19.2188 9.25781-16.3281C8.83789-15.918 8.80859-15.3418 9.04297-14.9512C9.27734-14.5898 9.73633-14.3555 10.3809-14.5215C11.8457-14.8633 13.3691-14.9219 14.7949-13.9844L14.209-12.5293C14.0137-12.0508 13.9844-11.6504 14.1113-11.2891L3.04688-0.898438C2.06055 0.0195312 1.98242 0.996094 2.8418 1.86523ZM10.752-15.957C13.1836-17.7344 16.4746-17.4316 18.7012-15.2051L21.1328-12.793C21.3672-12.5586 21.4062-12.373 21.3379-12.0312L21.0156-10.5469L22.5195-9.0625L23.5059-9.12109C23.7598-9.13086 23.8379-9.11133 24.0332-8.91602L24.6094-8.33984L22.168-5.89844L21.5918-6.47461C21.3965-6.66992 21.3672-6.74805 21.377-7.01172L21.4453-7.98828L19.9512-9.47266L18.4277-9.21875C18.1055-9.15039 17.959-9.17969 17.7148-9.41406L15.7129-11.416C15.459-11.6504 15.4297-11.8164 15.5859-12.1875L16.4648-14.2773C14.9023-15.7324 12.8711-16.3574 10.8398-15.7617C10.6836-15.7227 10.625-15.8496 10.752-15.957ZM5.27344 2.30469L4.10156 1.14258C3.63281 0.683594 3.74023 0.341797 4.14062-0.0195312L14.9512-10.1953L16.416-8.71094L6.42578 2.27539C6.07422 2.67578 5.74219 2.77344 5.27344 2.30469Z"/>
  </g>
  <text style="stroke:none;fill:black;font-family:-apple-system,&quot;SF Pro Display&quot;,&quot;SF Pro Text&quot;,Helvetica,sans-serif;font-weight:bold;" transform="matrix(1 0 0 1 1289 1953)">Exporting</text>
  <text style="stroke:none;fill:black;font-family:-apple-system,&quot;SF Pro Display&quot;,&quot;SF Pro Text&quot;,Helvetica,sans-serif;" transform="matrix(1 0 0 1 1289 1971)">Symbols should be outlined when exporting to ensure the</text>
  <text style="stroke:none;fill:black;font-family:-apple-system,&quot;SF Pro Display&quot;,&quot;SF Pro Text&quot;,Helvetica,sans-serif;" transform="matrix(1 0 0 1 1289 1989)">design is preserved when submitting to Xcode.</text>
  <text id="template-version" style="stroke:none;fill:black;font-family:-apple-system,&quot;SF Pro Display&quot;,&quot;SF Pro Text&quot;,Helvetica,sans-serif;text-anchor:end;" transform="matrix(1 0 0 1 3036 1933)">Template v.2.0</text>
  <text style="stroke:none;fill:black;font-family:-apple-system,&quot;SF Pro Display&quot;,&quot;SF Pro Text&quot;,Helvetica,sans-serif;text-anchor:end;" transform="matrix(1 0 0 1 3036 1951)">Requires Xcode 12 or greater</text>
  <text style="stroke:none;fill:black;font-family:-apple-system,&quot;SF Pro Display&quot;,&quot;SF Pro Text&quot;,Helvetica,sans-serif;text-anchor:end;" transform="matrix(1 0 0 1 3036 1969)">Generated from hand.thumbsdown.fill</text>
  <text style="stroke:none;fill:black;font-family:-apple-system,&quot;SF Pro Display&quot;,&quot;SF Pro Text&quot;,Helvetica,sans-serif;text-anchor:end;" transform="matrix(1 0 0 1 3036 1987)">Typeset at 100 points</text>
  <text style="stroke:none;fill:black;font-family:-apple-system,&quot;SF Pro Display&quot;,&quot;SF Pro Text&quot;,Helvetica,sans-serif;" transform="matrix(1 0 0 1 263 726)">Small</text>
  <text style="stroke:none;fill:black;font-family:-apple-system,&quot;SF Pro Display&quot;,&quot;SF Pro Text&quot;,Helvetica,sans-serif;" transform="matrix(1 0 0 1 263 1156)">Medium</text>
  <text style="stroke:none;fill:black;font-family:-apple-system,&quot;SF Pro Display&quot;,&quot;SF Pro Text&quot;,Helvetica,sans-serif;" transform="matrix(1 0 0 1 263 1586)">Large</text>
 </g>
 <g id="Guides">
  <g id="H-reference" style="fill:#27AAE1;stroke:none;" transform="matrix(1 0 0 1 339 696)">
   <path d="M0.976562 0L3.66211 0L12.9883-24.4629L45.752-24.4629L55.127 0L57.7637 0L30.6152-70.459L28.125-70.459ZM29.3457-67.1387L29.4434-67.1387L44.873-26.709L13.8672-26.709Z"/>
  </g>
  <line id="Baseline-S" style="fill:none;stroke:#27AAE1;opacity:1;stroke-width:0.5;" x1="263" x2="3036" y1="696" y2="696"/>
  <line id="Capline-S" style="fill:none;stroke:#27AAE1;opacity:1;stroke-width:0.5;" x1="263" x2="3036" y1="625.541" y2="625.541"/>
  <g id="H-reference" style="fill:#27AAE1;stroke:none;" transform="matrix(1 0 0 1 339 1126)">
   <path d="M0.976562 0L3.66211 0L12.9883-24.4629L45.752-24.4629L55.127 0L57.7637 0L30.6152-70.459L28.125-70.459ZM29.3457-67.1387L29.4434-67.1387L44.873-26.709L13.8672-26.709Z"/>
  </g>
  <line id="Baseline-M" style="fill:none;stroke:#27AAE1;opacity:1;stroke-width:0.5;" x1="263" x2="3036" y1="1126" y2="1126"/>
  <line id="Capline-M" style="fill:none;stroke:#27AAE1;opacity:1;stroke-width:0.5;" x1="263" x2="3036" y1="1055.54" y2="1055.54"/>
  <g id="H-reference" style="fill:#27AAE1;stroke:none;" transform="matrix(1 0 0 1 339 1556)">
   <path d="M0.976562 0L3.66211 0L12.9883-24.4629L45.752-24.4629L55.127 0L57.7637 0L30.6152-70.459L28.125-70.459ZM29.3457-67.1387L29.4434-67.1387L44.873-26.709L13.8672-26.709Z"/>
  </g>
  <line id="Baseline-L" style="fill:none;stroke:#27AAE1;opacity:1;stroke-width:0.5;" x1="263" x2="3036" y1="1556" y2="1556"/>
  <line id="Capline-L" style="fill:none;stroke:#27AAE1;opacity:1;stroke-width:0.5;" x1="263" x2="3036" y1="1485.54" y2="1485.54"/>
  <line id="left-margin" style="fill:none;stroke:#00AEEF;stroke-width:0.5;opacity:1.0;" x1="1389.59" x2="1389.59" y1="1030.79" y2="1150.12"/>
  <line id="right-margin" style="fill:none;stroke:#00AEEF;stroke-width:0.5;opacity:1.0;" x1="1510.1" x2="1510.1" y1="1030.79" y2="1150.12"/>
 </g>
 <g id="Symbols">
  <g id="Black-L" transform="matrix(1 0 0 1 2847.66 1556)">
   <path d="M123.193-58.8379C123.584-86.7188 100.83-106.738 67.3828-106.982L57.7637-107.08C49.1211-107.178 41.8457-106.494 37.4023-105.469C29.9805-103.711 24.8047-98.7793 24.8047-91.6992C24.8047-89.2578 25.293-87.3047 26.0254-85.7422C26.3184-85.1562 26.1719-84.8633 25.8301-84.668C20.8496-81.8359 17.9199-77.3438 17.9199-71.9238C17.9199-68.9453 18.7012-66.0645 20.1172-63.7695C20.4102-63.2324 20.2637-62.793 19.8242-62.4512C16.5039-60.0098 14.3555-55.6641 14.3555-50.7812C14.3555-47.168 15.3809-43.75 17.0898-41.6016C17.4805-41.1133 17.4316-40.6738 16.9434-40.332C14.6484-38.0859 13.4766-34.3262 13.4766-30.4199C13.4766-22.2168 19.9219-15.7227 28.0273-15.7227L53.0273-15.7227C58.252-15.7227 61.377-13.2812 61.377-9.47266C61.377-0.585938 49.4141 16.8945 49.4141 30.0293C49.4141 37.5488 54.4434 42.7246 61.4746 42.7246C66.9434 42.7246 70.2637 39.5996 73.877 32.666C84.375 12.4512 98.1445-4.15039 108.936-18.4082C118.896-31.5918 122.9-42.5781 123.193-58.8379ZM159.424-59.4727C159.424-82.373 145.459-100.293 127.002-100.293L116.504-100.293C128.271-89.9902 134.668-75.4395 134.375-58.6914C134.18-42.4316 129.785-29.9316 121.924-18.4082L129.59-18.4082C146.631-18.4082 159.424-36.2305 159.424-59.4727Z"/>
  </g>
  <g id="Heavy-L" transform="matrix(1 0 0 1 2553.22 1556)">
   <path d="M119.727-57.2266C120.117-84.082 98.2422-103.564 65.625-103.809L56.25-103.906C47.6562-104.004 40.625-103.369 36.4258-102.344C29.5898-100.684 24.4629-96.1914 24.4629-89.3555C24.4629-86.9141 25-85.0098 25.7324-83.4473C26.0742-82.8613 25.9766-82.4219 25.5371-82.2266C20.8008-79.6387 17.7734-75.3418 17.7734-70.0195C17.7734-67.041 18.5547-64.2578 19.9219-62.0605C20.3613-61.4258 20.2148-60.8887 19.5801-60.498C16.3574-58.2031 14.2578-54.0039 14.2578-49.3164C14.2578-45.8496 15.2832-42.4805 16.9922-40.4785C17.5293-39.8926 17.4316-39.4043 16.7969-38.916C14.5508-36.7676 13.3789-33.252 13.3789-29.3945C13.3789-21.6309 19.4336-15.5273 27.1484-15.5273L51.5625-15.5273C56.9336-15.5273 60.2539-12.9395 60.2539-8.93555C60.2539-0.0976562 48.5352 16.9922 48.5352 29.7363C48.5352 36.8652 53.3203 41.6504 59.8633 41.6504C65.1367 41.6504 68.2129 38.5254 71.5332 32.0801C81.7871 12.2559 95.3613-4.00391 105.908-17.9688C115.43-30.6152 119.482-41.2109 119.727-57.2266ZM154.688-57.8125C154.688-79.834 141.26-97.3145 123.389-97.3145L112.5-97.3145C124.268-87.4512 130.42-73.291 130.127-57.0801C129.932-40.7715 125.098-28.5645 117.822-18.1152L125.928-18.1152C142.334-18.1152 154.688-35.4004 154.688-57.8125Z"/>
  </g>
  <g id="Bold-L" transform="matrix(1 0 0 1 2259.02 1556)">
   <path d="M115.869-55.4199C116.26-81.1035 95.3613-100.049 63.7207-100.293L54.4922-100.342C45.9961-100.439 39.3066-99.8047 35.3027-98.8281C29.1016-97.3145 24.0723-93.3105 24.0723-86.7188C24.0723-84.2773 24.6582-82.373 25.4395-80.9082C25.8301-80.2246 25.7324-79.7363 25.1465-79.4434C20.7031-77.2461 17.5293-73.1445 17.5293-67.8711C17.5293-64.9414 18.3594-62.207 19.7266-60.1562C20.2637-59.4238 20.1172-58.7402 19.3359-58.252C16.2109-56.2012 14.1602-52.1973 14.1602-47.6562C14.1602-44.3848 15.1367-41.0645 16.8457-39.209C17.5781-38.5254 17.4316-37.9883 16.6504-37.3047C14.502-35.3516 13.2812-32.0312 13.2812-28.2715C13.2812-21.0449 18.8965-15.2832 26.1719-15.2832L50-15.2832C55.4688-15.2832 58.9844-12.5488 58.9844-8.30078C58.9844 0.488281 47.5586 17.1387 47.5586 29.3945C47.5586 36.1328 52.0508 40.4297 58.0566 40.4297C63.0859 40.4297 65.8691 37.3047 68.9453 31.4453C78.9551 12.0117 92.2363-3.85742 102.49-17.4316C111.621-29.4922 115.625-39.6973 115.869-55.4199ZM149.414-55.957C149.414-76.9531 136.523-93.8965 119.336-93.8965L108.057-93.8965C119.824-84.6191 125.684-70.9473 125.439-55.2734C125.244-38.916 119.873-27.0508 113.281-17.8223L121.826-17.8223C137.549-17.8223 149.414-34.4727 149.414-55.957Z"/>
  </g>
  <g id="Semibold-L" transform="matrix(1 0 0 1 1964.04 1556)">
   <path d="M113.232-54.1992C113.574-79.0527 93.3594-97.6074 62.3535-97.8516L53.3203-97.9004C44.873-97.998 38.3789-97.3633 34.5703-96.4355C28.8086-94.9707 23.7793-91.3086 23.7793-84.9121C23.7793-82.4707 24.4141-80.6152 25.1953-79.1504C25.6348-78.418 25.5371-77.8809 24.9023-77.5879C20.6055-75.5371 17.3828-71.582 17.3828-66.3574C17.3828-63.4766 18.2129-60.791 19.6289-58.8379C20.2148-58.0078 20.0684-57.2754 19.1406-56.7383C16.1133-54.7852 14.0625-50.9277 14.0625-46.5332C14.0625-43.3594 15.0391-40.0879 16.748-38.3301C17.5781-37.5488 17.4316-37.0117 16.5527-36.2305C14.4531-34.375 13.2324-31.1523 13.2324-27.4902C13.2324-20.6055 18.5547-15.0879 25.4883-15.0879L48.877-15.0879C54.4434-15.0879 58.0566-12.3047 58.0566-7.86133C58.0566 0.878906 46.9238 17.1875 46.9238 29.1504C46.9238 35.5957 51.123 39.5996 56.8359 39.5996C61.6699 39.5996 64.3066 36.4746 67.1387 30.957C76.9531 11.8164 90.0879-3.71094 100.146-17.0898C108.984-28.7109 112.988-38.6719 113.232-54.1992ZM145.752-54.6875C145.752-75 133.252-91.6016 116.553-91.6016L104.98-91.6016C116.748-82.666 122.461-69.3359 122.168-54.0527C121.973-37.6465 116.309-26.0254 110.107-17.5781L118.994-17.5781C134.229-17.5781 145.752-33.8379 145.752-54.6875Z"/>
  </g>
  <g id="Medium-L" transform="matrix(1 0 0 1 1668.65 1556)">
   <path d="M111.182-53.2227C111.523-77.4902 91.8457-95.752 61.3281-95.9961L52.3926-96.0449C43.9941-96.1426 37.6953-95.5078 33.9844-94.5801C28.5645-93.1641 23.584-89.7949 23.584-83.5449C23.584-81.0547 24.2188-79.248 25.0488-77.7832C25.4883-77.0508 25.3906-76.4648 24.707-76.123C20.5566-74.2676 17.2852-70.4102 17.2852-65.2344C17.2852-62.3535 18.1152-59.7168 19.5312-57.8125C20.166-56.9336 20.0684-56.2012 18.9941-55.5664C16.0645-53.7598 14.0137-50 14.0137-45.6543C14.0137-42.5781 14.9902-39.3555 16.6992-37.6953C17.627-36.8652 17.4316-36.2793 16.4551-35.4004C14.4043-33.6426 13.1836-30.5176 13.1836-26.9043C13.1836-20.3125 18.2617-14.9902 24.9512-14.9902L48.0469-14.9902C53.7109-14.9902 57.4219-12.1094 57.4219-7.56836C57.4219 1.17188 46.3867 17.2852 46.3867 28.9551C46.3867 35.2051 50.4883 39.0137 55.8594 39.0137C60.5957 39.0137 63.0859 35.8398 65.7715 30.6152C75.4883 11.7188 88.4277-3.61328 98.3887-16.7969C106.934-28.1738 110.986-37.8418 111.182-53.2227ZM142.969-53.7598C142.969-73.4863 130.811-89.7949 114.404-89.7949L102.637-89.7949C114.404-81.1523 119.971-68.1152 119.727-53.0762C119.482-36.6699 113.574-25.2441 107.715-17.4316L116.846-17.4316C131.689-17.4316 142.969-33.3496 142.969-53.7598Z"/>
  </g>
  <g id="Regular-L" transform="matrix(1 0 0 1 1373.67 1556)">
   <path d="M108.594-52.002C108.887-75.4883 89.8926-93.3105 60.0098-93.5547L51.2207-93.6523C42.8711-93.7012 36.7676-93.1152 33.252-92.1875C28.2715-90.8691 23.3398-87.8418 23.3398-81.7383C23.3398-79.248 23.9746-77.4902 24.8535-76.0742C25.293-75.2441 25.2441-74.6094 24.4629-74.2676C20.5078-72.6074 17.1387-68.8965 17.1387-63.7695C17.1387-60.8887 18.0176-58.3496 19.3848-56.543C20.1172-55.5664 20.0195-54.7363 18.8477-54.0527C15.9668-52.3438 13.9648-48.7305 13.9648-44.5312C13.9648-41.6016 14.8926-38.3789 16.6016-36.8164C17.627-35.9375 17.4316-35.3027 16.3574-34.3262C14.3555-32.6172 13.0859-29.6875 13.0859-26.123C13.0859-19.873 17.9199-14.7949 24.3164-14.7949L46.9727-14.7949C52.6855-14.7949 56.543-11.8652 56.543-7.12891C56.543 1.5625 45.752 17.334 45.752 28.7109C45.752 34.668 49.6094 38.1836 54.6387 38.1836C59.2285 38.1836 61.5234 35.0098 63.9648 30.1758C73.5352 11.5723 86.3281-3.51562 96.0449-16.4551C104.346-27.3926 108.398-36.8164 108.594-52.002ZM139.355-52.4902C139.355-71.5332 127.588-87.5 111.67-87.5L99.5605-87.5C111.377-79.1992 116.748-66.5039 116.504-51.8555C116.26-35.4492 110.01-24.2188 104.59-17.2363L114.062-17.2363C128.418-17.2363 139.355-32.7148 139.355-52.4902Z"/>
  </g>
  <g id="Light-L" transform="matrix(1 0 0 1 1079.11 1556)">
   <path d="M106.152-50.4395C106.348-73.4375 87.8418-90.918 58.5449-91.1621L49.9512-91.2598C41.748-91.3086 35.791-90.7227 32.3242-89.7949C27.4414-88.5254 22.5586-85.5469 22.5586-79.5898C22.5586-77.1484 23.2422-75.3906 24.0723-74.0234C24.5605-73.1934 24.4629-72.5586 23.7305-72.2656C19.8242-70.6055 16.5527-66.9922 16.5527-62.0117C16.5527-59.1797 17.3828-56.6406 18.75-54.8828C19.4336-53.9062 19.3359-53.125 18.1641-52.4414C15.332-50.8301 13.3789-47.2168 13.3789-43.1152C13.3789-40.2344 14.3066-37.0605 16.0156-35.5469C17.041-34.668 16.7969-34.0332 15.7227-33.1055C13.8184-31.4453 12.5488-28.6133 12.5488-25.0488C12.5488-18.9453 17.2852-13.9648 23.5352-13.9648L45.752-13.9648C51.3672-13.9648 55.1758-11.084 55.1758-6.44531C55.1758 2.05078 44.5801 17.5293 44.5801 28.7109C44.5801 34.5215 48.3398 37.9395 53.2715 37.9395C57.7637 37.9395 60.0098 34.8633 62.4512 30.127C71.7773 11.8652 84.3262-2.92969 93.8965-15.5762C102.002-26.3184 106.006-35.5469 106.152-50.4395ZM135.596-50.9277C135.596-69.5801 124.219-85.2539 108.594-85.2539L95.752-85.2539C107.666-77.2949 113.135-64.8438 112.891-50.293C112.646-33.7891 106.494-23.1934 101.465-16.3086L110.938-16.3086C125.049-16.3086 135.596-31.4941 135.596-50.9277Z"/>
  </g>
  <g id="Thin-L" transform="matrix(1 0 0 1 785.231 1556)">
   <path d="M102.93-48.3887C102.979-70.752 85.1074-87.7441 56.5918-87.9883L48.2422-88.0859C40.2344-88.1348 34.4727-87.5977 31.0547-86.6699C26.3672-85.4492 21.582-82.5684 21.582-76.709C21.582-74.3652 22.2168-72.6562 23.0469-71.2891C23.5352-70.5078 23.4375-69.9219 22.7051-69.5801C18.8965-67.9199 15.7227-64.502 15.7227-59.6191C15.7227-56.8848 16.5527-54.4434 17.8711-52.6367C18.5547-51.709 18.4082-50.9766 17.2852-50.293C14.5508-48.7793 12.6465-45.2148 12.6465-41.2598C12.6465-38.3789 13.5742-35.3516 15.2344-33.8867C16.2109-33.0566 16.0156-32.4219 14.9414-31.4941C13.0859-29.8828 11.8652-27.1484 11.8652-23.6328C11.8652-17.7246 16.4551-12.8906 22.5586-12.8906L44.1895-12.8906C49.6094-12.8906 53.3203-10.0586 53.3203-5.56641C53.3203 2.73438 42.9688 17.8223 42.9688 28.6621C42.9688 34.3262 46.6797 37.6465 51.4648 37.6465C55.8594 37.6465 58.0566 34.668 60.4004 30.0293C69.4824 12.2559 81.6895-2.09961 91.0156-14.4043C98.9258-24.8535 102.881-33.8867 102.93-48.3887ZM130.566-48.8281C130.566-66.9922 119.727-82.2266 104.59-82.2266L90.6738-82.2266C102.783-74.707 108.398-62.6465 108.154-48.1934C107.91-31.6406 101.855-21.7773 97.3145-15.1367L106.836-15.1367C120.557-15.1367 130.566-29.8828 130.566-48.8281Z"/>
  </g>
  <g id="Ultralight-L" transform="matrix(1 0 0 1 489.96 1556)">
   <path d="M101.27-47.3145C101.221-69.3359 83.6914-86.1328 55.5664-86.377L47.3633-86.4258C39.4531-86.5234 33.7891-85.9375 30.4199-85.0586C25.7812-83.8867 21.0938-81.0059 21.0938-75.2441C21.0938-72.9492 21.7285-71.2402 22.5098-69.9219C22.998-69.0918 22.9004-68.5547 22.2168-68.2129C18.457-66.5527 15.332-63.1836 15.332-58.3984C15.332-55.7129 16.1133-53.3203 17.3828-51.5137C18.1152-50.5859 17.9688-49.8535 16.8457-49.2188C14.1113-47.7051 12.3047-44.1895 12.3047-40.2832C12.3047-37.5 13.1836-34.4238 14.8438-33.0078C15.8203-32.2266 15.5762-31.5918 14.5508-30.7129C12.6953-29.1016 11.4746-26.3672 11.4746-22.9492C11.4746-17.1387 16.0645-12.3047 22.0215-12.3047L43.3594-12.3047C48.7305-12.3047 52.3926-9.52148 52.3926-5.12695C52.3926 3.07617 42.1387 17.9688 42.1387 28.6621C42.1387 34.2285 45.8496 37.5 50.5371 37.5C54.8828 37.5 57.0312 34.5703 59.3262 30.0293C68.2617 12.4512 80.3223-1.70898 89.5508-13.8184C97.3633-24.1211 101.27-33.0078 101.27-47.3145ZM128.027-47.8027C128.027-65.6738 117.432-80.6641 102.49-80.6641L88.0859-80.6641C100.293-73.3887 105.957-61.5234 105.713-47.1191C105.469-30.5664 99.4629-21.0938 95.166-14.5508L104.736-14.5508C118.262-14.5508 128.027-29.1016 128.027-47.8027Z"/>
  </g>
  <g id="Black-M" transform="matrix(1 0 0 1 2865.07 1126)">
   <path d="M98.8281-54.8828C99.1211-77.5879 80.5176-93.6523 53.8086-93.8477L46.1914-93.8965C39.4531-93.9453 33.4961-93.457 29.7852-92.6758C23.3398-91.1621 19.2871-86.7188 19.2871-81.0059C19.2871-79.1992 19.6289-77.6367 20.1172-76.3672C20.3125-76.0254 20.166-75.8789 20.0684-75.7812C15.918-73.1934 13.8184-69.5312 13.8184-65.332C13.8184-62.9883 14.4043-60.6934 15.4297-58.7402C15.5762-58.4961 15.4297-58.252 15.332-58.1543C12.6465-56.0059 10.9375-52.4414 10.9375-48.5352C10.9375-45.5078 11.7676-42.8223 13.0859-41.0156C13.1836-40.7715 13.1836-40.5273 13.0371-40.4297C11.1328-38.5254 10.2539-35.4004 10.2539-32.3242C10.2539-25.3906 15.7227-19.9707 22.5098-19.9707L42.3828-19.9707C46.1914-19.9707 48.3887-18.2617 48.3887-15.6738C48.3887-8.78906 38.8184 5.12695 38.8184 15.7715C38.8184 22.0215 43.0664 26.4648 49.1211 26.4648C53.5645 26.4648 56.4453 24.1211 59.5703 18.1641C67.8711 2.14844 78.7598-10.9863 87.3535-22.3633C95.5078-33.1543 98.6328-42.0898 98.8281-54.8828ZM127.93-55.3711C127.93-74.1699 116.602-88.5254 101.66-88.5254L93.6523-88.5254C102.783-80.0781 108.154-68.3105 107.861-54.7363C107.764-42.1875 105.029-32.373 98.3398-22.1191L103.711-22.1191C117.627-22.1191 127.93-36.4746 127.93-55.3711Z"/>
  </g>
  <g id="Heavy-M" transform="matrix(1 0 0 1 2570.26 1126)">
   <path d="M95.6543-53.5156C95.9473-75.2441 78.2227-90.8203 52.2461-91.0156L44.8242-91.0645C38.1348-91.1133 32.4219-90.625 28.9551-89.8438C23.0957-88.4277 19.0918-84.5215 19.0918-79.0039C19.0918-77.1484 19.4824-75.6348 20.0195-74.4141C20.2148-73.9746 20.1172-73.7793 19.9219-73.6328C16.0156-71.3379 13.7695-67.8711 13.7695-63.6719C13.7695-61.377 14.3555-59.1309 15.4297-57.3242C15.625-56.9336 15.5273-56.6406 15.2344-56.3965C12.6465-54.4434 10.9863-51.0742 10.9863-47.2656C10.9863-44.4336 11.7676-41.7969 13.0859-40.0879C13.3789-39.7461 13.3301-39.4531 12.9883-39.209C11.1816-37.4512 10.3027-34.4727 10.3027-31.4941C10.3027-25 15.3809-19.9707 21.7285-19.9707L41.1133-19.9707C45.1172-19.9707 47.4609-18.0664 47.4609-15.2344C47.4609-8.39844 38.1836 5.17578 38.1836 15.4297C38.1836 21.3379 42.1387 25.3906 47.7051 25.3906C51.9043 25.3906 54.541 22.998 57.4219 17.5293C65.5273 1.85547 76.2207-10.9863 84.6191-22.0703C92.334-32.373 95.459-40.918 95.6543-53.5156ZM123.73-54.0039C123.73-71.875 112.891-85.8398 98.4863-85.8398L90.2344-85.8398C99.4141-77.7832 104.443-66.4551 104.199-53.418C104.053-40.7715 100.781-31.1523 94.6777-22.0215L100.488-22.0215C113.818-22.0215 123.73-35.8887 123.73-54.0039Z"/>
  </g>
  <g id="Bold-M" transform="matrix(1 0 0 1 2275.67 1126)">
   <path d="M92.1387-52.002C92.4316-72.6074 75.6836-87.6465 50.5371-87.8418L43.2617-87.8906C36.6211-87.9395 31.25-87.4512 28.0273-86.6699C22.8027-85.4004 18.8477-82.0312 18.8477-76.7578C18.8477-74.8535 19.2871-73.3887 19.873-72.2168C20.166-71.7285 20.0684-71.3867 19.7266-71.1914C16.0645-69.2871 13.7207-65.9668 13.7207-61.8652C13.7207-59.5703 14.3066-57.373 15.3809-55.7129C15.7227-55.2246 15.625-54.7852 15.1367-54.4434C12.6465-52.6855 11.0352-49.5117 11.0352-45.8984C11.0352-43.2129 11.7676-40.625 13.1348-39.1113C13.5742-38.623 13.5254-38.2324 12.9883-37.8418C11.2793-36.2305 10.3516-33.4961 10.3516-30.5664C10.3516-24.6094 14.9414-19.9219 20.8496-19.9219L39.6973-19.9219C43.8965-19.9219 46.4844-17.9199 46.4844-14.7461C46.4844-7.91016 37.4512 5.27344 37.4512 15.0391C37.4512 20.5078 41.1133 24.1211 46.0938 24.1211C50.0977 24.1211 52.4414 21.7285 54.9805 16.8457C62.8906 1.51367 73.3887-10.9863 81.4941-21.7773C88.8184-31.4453 91.9434-39.6484 92.1387-52.002ZM119.043-52.4414C119.043-69.3359 108.691-82.7637 94.9219-82.7637L86.4746-82.7637C95.6055-75.2441 100.293-64.3555 100.098-51.9043C99.9512-39.2578 96.0938-29.834 90.5762-21.9238L96.9238-21.9238C109.521-21.9238 119.043-35.2051 119.043-52.4414Z"/>
  </g>
  <g id="Semibold-M" transform="matrix(1 0 0 1 1980.45 1126)">
   <path d="M89.6973-50.9766C90.0391-70.8008 73.877-85.4492 49.3652-85.6445L42.2363-85.6934C35.5957-85.7422 30.4199-85.2539 27.3926-84.5215C22.6562-83.3008 18.7012-80.2734 18.7012-75.1953C18.7012-73.291 19.1895-71.8262 19.7754-70.7031C20.1172-70.166 20.0195-69.7266 19.5801-69.5312C16.1133-67.8711 13.6719-64.6973 13.6719-60.5957C13.6719-58.3008 14.3066-56.2012 15.3809-54.5898C15.8203-54.0039 15.7227-53.5156 15.0391-53.0762C12.6465-51.5137 11.0352-48.4375 11.0352-44.9219C11.0352-42.3828 11.8164-39.7949 13.1348-38.4277C13.7207-37.8418 13.623-37.4023 12.9883-36.8652C11.3281-35.3516 10.3516-32.8125 10.3516-29.8828C10.3516-24.3652 14.6973-19.9219 20.2637-19.9219L38.7207-19.9219C43.0176-19.9219 45.752-17.7734 45.752-14.4043C45.752-7.56836 36.9629 5.32227 36.9629 14.7949C36.9629 19.9707 40.3809 23.291 44.9707 23.291C48.877 23.291 50.9766 20.8496 53.3203 16.3574C61.084 1.26953 71.3867-10.9863 79.3457-21.5332C86.377-30.8594 89.502-38.7695 89.6973-50.9766ZM115.771-51.3672C115.771-67.5781 105.811-80.7129 92.4805-80.7129L83.8379-80.7129C92.9688-73.4863 97.4609-62.9395 97.2656-50.8301C97.0703-38.1836 92.8711-28.9062 87.7441-21.875L94.4336-21.875C106.592-21.875 115.771-34.7656 115.771-51.3672Z"/>
  </g>
  <g id="Medium-M" transform="matrix(1 0 0 1 1684.84 1126)">
   <path d="M87.8906-50.1465C88.1836-69.3848 72.5586-83.7891 48.4375-83.9844L41.4062-84.0332C34.8145-84.082 29.834-83.5938 26.9043-82.8613C22.5098-81.7383 18.6035-79.0039 18.6035-74.0234C18.6035-72.1191 19.0918-70.6543 19.7266-69.5312C20.0684-68.9453 19.9707-68.5059 19.4824-68.2617C16.1621-66.7969 13.623-63.7207 13.623-59.6191C13.623-57.373 14.3066-55.2734 15.3809-53.7598C15.8691-53.125 15.7715-52.5391 14.9902-52.0508C12.6465-50.5859 11.0352-47.6074 11.0352-44.1895C11.0352-41.748 11.8164-39.209 13.1348-37.8906C13.8184-37.2559 13.7207-36.8164 12.9883-36.1816C11.3281-34.7168 10.4004-32.2754 10.4004-29.3945C10.4004-24.1211 14.4531-19.9219 19.8242-19.9219L37.9883-19.9219C42.3828-19.9219 45.2637-17.6758 45.2637-14.1602C45.2637-7.32422 36.5723 5.37109 36.5723 14.5996C36.5723 19.5801 39.7949 22.6562 44.1406 22.6562C47.9004 22.6562 49.9023 20.166 52.0508 15.9668C59.7168 1.07422 69.9219-10.9863 77.7344-21.3867C84.5215-30.3711 87.6953-38.0859 87.8906-50.1465ZM113.33-50.5859C113.33-66.2109 103.613-79.1016 90.625-79.1016L81.8848-79.1016C90.9668-72.168 95.3125-61.8164 95.1172-50.0488C94.9219-37.3535 90.3809-28.1738 85.5957-21.8262L92.5781-21.8262C104.346-21.8262 113.33-34.4238 113.33-50.5859Z"/>
  </g>
  <g id="Regular-M" transform="matrix(1 0 0 1 1389.59 1126)">
   <path d="M85.498-49.1211C85.791-67.5781 70.8008-81.6406 47.3145-81.7871L40.3809-81.8848C33.8379-81.9336 29.0039-81.4453 26.2207-80.7129C22.3145-79.6875 18.457-77.2949 18.457-72.5098C18.457-70.5566 18.9453-69.1406 19.6289-68.0176C20.0195-67.4316 19.9707-66.8945 19.3359-66.6504C16.2109-65.3809 13.5742-62.4023 13.5742-58.3984C13.5742-56.1035 14.2578-54.1016 15.332-52.6855C15.918-51.9531 15.8203-51.2695 14.9414-50.7324C12.6465-49.4141 11.084-46.5332 11.084-43.2617C11.084-40.918 11.8164-38.4277 13.1836-37.207C13.9648-36.4746 13.8184-35.9863 12.9883-35.2539C11.377-33.8867 10.4004-31.5918 10.4004-28.7598C10.4004-23.877 14.209-19.873 19.1895-19.873L37.0117-19.873C41.5527-19.873 44.5312-17.5293 44.5312-13.8184C44.5312-7.03125 36.084 5.41992 36.084 14.3555C36.084 19.043 39.1113 21.7773 43.0664 21.7773C46.6797 21.7773 48.4863 19.2871 50.4395 15.4785C57.9102 0.878906 67.9688-10.9863 75.6348-21.1426C82.1289-29.7852 85.3027-37.207 85.498-49.1211ZM110.107-49.5117C110.107-64.502 100.732-77.0508 88.2324-77.0508L79.2969-77.0508C88.3789-70.4102 92.4805-60.4004 92.2852-49.0234C92.0898-36.3281 87.207-27.2949 82.7637-21.7773L90.0879-21.7773C101.416-21.7773 110.107-33.9355 110.107-49.5117Z"/>
  </g>
  <g id="Light-M" transform="matrix(1 0 0 1 1094.81 1126)">
   <path d="M83.3008-47.7051C83.4961-65.7715 68.9453-79.4434 45.9961-79.6387L39.2578-79.6875C32.8125-79.7852 28.125-79.2969 25.3906-78.5645C21.582-77.5879 17.7734-75.2441 17.7734-70.5566C17.7734-68.6523 18.3105-67.2852 18.9453-66.2109C19.3359-65.5762 19.2383-65.0879 18.6523-64.8438C15.625-63.5254 13.0371-60.6934 13.0371-56.7871C13.0371-54.541 13.7207-52.5879 14.7461-51.1719C15.332-50.4395 15.2344-49.8047 14.3555-49.2676C12.1094-47.998 10.5957-45.2148 10.5957-41.9922C10.5957-39.6973 11.3281-37.2559 12.6465-36.0352C13.4277-35.3516 13.2812-34.8633 12.4512-34.1309C10.8887-32.8125 9.91211-30.5664 9.91211-27.832C9.91211-23.0469 13.623-19.1406 18.5547-19.1406L35.9375-19.1406C40.3809-19.1406 43.3105-16.8457 43.3105-13.2324C43.3105-6.54297 35.0098 5.56641 35.0098 14.3066C35.0098 18.8965 37.9883 21.582 41.8457 21.582C45.3613 21.582 47.1191 19.1406 49.0234 15.4297C56.3477 1.12305 66.2109-10.4492 73.6816-20.3613C80.0781-28.8086 83.1543-36.0352 83.3008-47.7051ZM106.738-48.0957C106.738-62.7441 97.7051-75 85.498-75L75.8789-75C85.0586-68.7012 89.2578-58.9355 89.0625-47.6074C88.8672-34.8633 84.0332-26.3672 79.9805-20.9961L87.3535-20.9961C98.3887-20.9961 106.738-32.8613 106.738-48.0957Z"/>
  </g>
  <g id="Thin-M" transform="matrix(1 0 0 1 800.636 1126)">
   <path d="M80.4199-45.8496C80.4688-63.3301 66.5039-76.6113 44.2383-76.8066L37.6953-76.8555C31.4453-76.9043 26.9531-76.4648 24.3164-75.7812C20.6543-74.8047 16.8945-72.5586 16.8945-68.0176C16.8945-66.1621 17.4316-64.8438 18.0664-63.7695C18.4082-63.1348 18.3594-62.6953 17.7734-62.4512C14.7949-61.1328 12.3535-58.4473 12.3535-54.6387C12.3535-52.4902 12.9883-50.5859 14.0137-49.2188C14.5508-48.4863 14.4531-47.9004 13.5742-47.3633C11.4258-46.1426 9.96094-43.4082 9.96094-40.2832C9.96094-38.0859 10.6445-35.6934 11.9629-34.5215C12.6953-33.8867 12.5488-33.3984 11.7188-32.7148C10.2539-31.4453 9.32617-29.2969 9.32617-26.5625C9.32617-21.9238 12.8906-18.1641 17.6758-18.1641L34.5703-18.1641C38.8184-18.1641 41.6992-15.918 41.6992-12.4512C41.6992-5.95703 33.5938 5.81055 33.5938 14.3066C33.5938 18.75 36.5234 21.3379 40.2344 21.3379C43.6523 21.3379 45.3613 18.9941 47.2168 15.3809C54.2969 1.46484 63.8672-9.7168 71.1426-19.3359C77.2949-27.5391 80.3711-34.5215 80.4199-45.8496ZM102.246-46.2402C102.246-60.4004 93.75-72.3145 81.8848-72.3145L71.3379-72.3145C80.7129-66.4062 85.0098-56.9336 84.8145-45.752C84.6191-32.9102 79.8828-25.0977 76.2695-19.9219L83.6426-19.9219C94.3848-19.9219 102.246-31.4453 102.246-46.2402Z"/>
  </g>
  <g id="Ultralight-M" transform="matrix(1 0 0 1 505.243 1126)">
   <path d="M78.9551-44.9219C78.9551-62.0605 65.2344-75.1465 43.3594-75.3418L36.9629-75.3906C30.7617-75.4883 26.3672-75.0488 23.7305-74.3652C20.1172-73.3887 16.4551-71.1914 16.4551-66.6992C16.4551-64.8926 16.9434-63.5742 17.5781-62.5C17.9688-61.9141 17.8711-61.4746 17.334-61.2305C14.4043-59.9121 11.9629-57.2754 11.9629-53.5645C11.9629-51.4648 12.5977-49.5605 13.5742-48.1934C14.1602-47.4609 14.0137-46.875 13.1836-46.3867C11.0352-45.2148 9.61914-42.4805 9.61914-39.4043C9.61914-37.2559 10.3027-34.8633 11.6211-33.7402C12.3535-33.1543 12.1582-32.666 11.377-31.9824C9.91211-30.7129 8.98438-28.6133 8.98438-25.9277C8.98438-21.3867 12.5488-17.627 17.1875-17.627L33.8379-17.627C37.9883-17.627 40.8691-15.4785 40.8691-12.0605C40.8691-5.61523 32.9102 5.95703 32.9102 14.3066C32.9102 18.6523 35.7422 21.1914 39.4043 21.1914C42.7734 21.1914 44.4824 18.8965 46.2891 15.332C53.2227 1.66016 62.6465-9.375 69.8242-18.8477C75.8789-26.8555 78.9551-33.7402 78.9551-44.9219ZM99.9512-45.2637C99.9512-59.2285 91.6992-70.8984 80.0293-70.8984L69.043-70.8984C78.4668-65.1855 82.8125-55.9082 82.6172-44.7754C82.4219-31.9336 77.7832-24.5117 74.3652-19.3848L81.7871-19.3848C92.2852-19.3848 99.9512-30.7129 99.9512-45.2637Z"/>
  </g>
  <g id="Black-S" transform="matrix(1 0 0 1 2879.98 696)">
   <path d="M77.1973-50.5371C77.4414-68.2617 62.9395-80.8105 42.041-80.957L36.084-81.0059C30.8105-81.0547 26.1719-80.6641 23.291-80.0293C18.2617-78.8574 15.0879-75.4395 15.0879-70.9473C15.0879-69.5312 15.3809-68.3105 15.7715-67.334C15.918-67.041 15.8203-66.9434 15.7227-66.8457C12.5-64.8438 10.8398-62.0117 10.8398-58.6914C10.8398-56.8848 11.2793-55.0781 12.1094-53.5645C12.207-53.3691 12.1094-53.1738 12.0117-53.0762C9.91211-51.416 8.59375-48.6328 8.59375-45.5566C8.59375-43.2129 9.22852-41.1133 10.2539-39.6973C10.3516-39.502 10.3516-39.3066 10.2051-39.209C8.74023-37.7441 8.05664-35.3027 8.05664-32.9102C8.05664-27.4902 12.3047-23.291 17.5781-23.291L33.1055-23.291C36.1328-23.291 37.8418-21.9238 37.8418-19.873C37.8418-14.502 30.3711-3.61328 30.3711 4.6875C30.3711 9.57031 33.6914 13.0371 38.3789 13.0371C41.8457 13.0371 44.0918 11.1816 46.5332 6.54297C53.0273-5.95703 61.5234-16.2598 68.2617-25.1465C74.6094-33.5449 77.0508-40.5273 77.1973-50.5371ZM99.9512-50.9277C99.9512-65.5762 91.1133-76.8066 79.4434-76.8066L73.1445-76.8066C80.3223-70.2148 84.4727-61.0352 84.2773-50.4395C84.1797-40.5762 81.9824-32.9102 76.8066-24.9512L81.0547-24.9512C91.8945-24.9512 99.9512-36.1816 99.9512-50.9277Z"/>
  </g>
  <g id="Heavy-S" transform="matrix(1 0 0 1 2584.52 696)">
   <path d="M75.0488-49.6582C75.293-66.6504 61.377-78.8574 41.0156-79.0039L35.1562-79.0527C29.9316-79.1016 25.4883-78.7109 22.7539-78.125C18.1641-77.002 15.0391-73.9746 15.0391-69.6289C15.0391-68.1641 15.332-66.9922 15.7715-66.0156C15.9668-65.6738 15.8691-65.5273 15.6738-65.3809C12.5977-63.623 10.8398-60.8887 10.8398-57.6172C10.8398-55.8105 11.3281-54.0527 12.1582-52.6367C12.3535-52.3438 12.2559-52.0508 12.0117-51.9043C9.96094-50.3906 8.69141-47.7051 8.69141-44.7266C8.69141-42.5293 9.27734-40.4297 10.3516-39.1602C10.5469-38.8672 10.5469-38.623 10.2539-38.3789C8.83789-37.0117 8.1543-34.7168 8.1543-32.373C8.1543-27.2949 12.1094-23.3398 17.041-23.3398L32.2754-23.3398C35.4492-23.3398 37.3047-21.875 37.3047-19.6289C37.3047-14.209 29.9805-3.56445 29.9805 4.44336C29.9805 9.0332 33.1055 12.207 37.4512 12.207C40.7715 12.207 42.8223 10.3027 45.0195 6.05469C51.416-6.20117 59.7656-16.3086 66.3574-25C72.4121-33.0566 74.9023-39.7949 75.0488-49.6582ZM97.1191-50C97.1191-64.0137 88.5742-74.9512 77.3438-74.9512L70.9473-74.9512C78.0762-68.6523 82.0312-59.7656 81.8359-49.5605C81.7383-39.6973 79.1016-32.0801 74.3164-25L78.9062-25C89.3066-25 97.1191-35.8398 97.1191-50Z"/>
  </g>
  <g id="Bold-S" transform="matrix(1 0 0 1 2289.2 696)">
   <path d="M72.6074-48.6816C72.9004-64.8926 59.668-76.709 39.8926-76.8555L34.1309-76.9043C28.9062-76.9531 24.6582-76.5625 22.1191-75.9766C18.0664-74.9512 14.9414-72.3145 14.9414-68.1641C14.9414-66.6992 15.2832-65.5273 15.7715-64.5996C15.9668-64.209 15.918-63.916 15.625-63.7695C12.7441-62.3047 10.8887-59.668 10.8887-56.3965C10.8887-54.6387 11.377-52.9297 12.207-51.6113C12.5-51.2207 12.4023-50.8301 12.0117-50.5859C10.0586-49.2188 8.74023-46.6797 8.74023-43.8477C8.74023-41.748 9.375-39.6973 10.4004-38.5254C10.791-38.1348 10.7422-37.8418 10.3027-37.5C8.93555-36.2305 8.25195-34.082 8.25195-31.7871C8.25195-27.0996 11.8652-23.4375 16.5039-23.4375L31.3477-23.4375C34.6191-23.4375 36.6699-21.8262 36.6699-19.3359C36.6699-13.916 29.5898-3.56445 29.5898 4.15039C29.5898 8.44727 32.4219 11.2793 36.377 11.2793C39.5508 11.2793 41.3574 9.375 43.3594 5.51758C49.6094-6.54297 57.8125-16.4062 64.2578-24.8535C69.9707-32.4707 72.4609-38.916 72.6074-48.6816ZM93.9453-49.0234C93.9453-62.3047 85.7422-72.9004 74.9512-72.9004L68.457-72.9004C75.5859-66.9434 79.248-58.3496 79.1016-48.584C78.9551-38.6719 75.9277-31.2012 71.5332-25L76.5137-25C86.4258-25 93.9453-35.4492 93.9453-49.0234Z"/>
  </g>
  <g id="Semibold-S" transform="matrix(1 0 0 1 1993.44 696)">
   <path d="M70.9473-47.998C71.2402-63.623 58.4473-75.2441 39.1113-75.3906L33.4473-75.4395C28.2227-75.4883 24.1211-75.0977 21.7285-74.4629C18.0176-73.5352 14.8926-71.1426 14.8926-67.1387C14.8926-65.625 15.2832-64.502 15.7715-63.5742C16.0156-63.1348 15.918-62.8418 15.5762-62.6465C12.8418-61.377 10.8887-58.8379 10.8887-55.6152C10.8887-53.8086 11.4258-52.0996 12.2559-50.8789C12.5977-50.3906 12.5488-50 12.0117-49.6582C10.1074-48.3887 8.83789-45.9961 8.83789-43.2129C8.83789-41.2109 9.42383-39.209 10.498-38.0859C10.9375-37.5977 10.8887-37.3047 10.3516-36.8652C9.0332-35.6445 8.30078-33.6426 8.30078-31.3477C8.30078-26.9531 11.7188-23.4863 16.1133-23.4863L30.6641-23.4863C34.082-23.4863 36.2793-21.7773 36.2793-19.0918C36.2793-13.7207 29.2969-3.51562 29.2969 3.95508C29.2969 8.05664 31.9824 10.6445 35.6445 10.6445C38.6719 10.6445 40.3809 8.69141 42.1875 5.17578C48.3398-6.73828 56.4941-16.4551 62.793-24.7559C68.3105-32.1289 70.8008-38.3301 70.9473-47.998ZM91.748-48.291C91.748-61.084 83.8379-71.4844 73.291-71.4844L66.748-71.4844C73.877-65.7227 77.3438-57.373 77.1973-47.9004C77.0508-37.9883 73.7305-30.5664 69.5801-25.0488L74.8535-25.0488C84.4238-25.0488 91.748-35.2051 91.748-48.291Z"/>
  </g>
  <g id="Medium-S" transform="matrix(1 0 0 1 1697.46 696)">
   <path d="M69.6777-47.4609C69.9707-62.6953 57.5684-74.0723 38.4766-74.2188L32.9102-74.2676C27.6855-74.3164 23.7305-73.9258 21.3867-73.3398C17.9688-72.4609 14.8438-70.3125 14.8438-66.3574C14.8438-64.8438 15.2344-63.7207 15.7227-62.793C16.0156-62.3535 15.9668-62.0117 15.5273-61.8164C12.9395-60.6445 10.8887-58.2031 10.8887-54.9805C10.8887-53.1738 11.4258-51.5137 12.3047-50.3418C12.6953-49.8047 12.5977-49.3652 12.0117-48.9746C10.1562-47.8027 8.88672-45.459 8.88672-42.7734C8.88672-40.8203 9.47266-38.8184 10.5469-37.7441C11.084-37.2559 10.9863-36.8652 10.4004-36.377C9.08203-35.2539 8.34961-33.3008 8.34961-31.0059C8.34961-26.8555 11.5723-23.5352 15.7715-23.5352L30.1758-23.5352C33.6914-23.5352 35.9375-21.7773 35.9375-18.9453C35.9375-13.5742 29.1016-3.51562 29.1016 3.80859C29.1016 7.76367 31.6406 10.1562 35.0586 10.1562C38.0371 10.1562 39.5996 8.20312 41.3086 4.88281C47.4121-6.88477 55.4688-16.4551 61.6699-24.707C67.041-31.8359 69.5312-37.8906 69.6777-47.4609ZM90.0879-47.8027C90.0879-60.2051 82.3242-70.3613 72.0703-70.3613L65.4785-70.3613C72.5586-64.8438 75.9277-56.6406 75.7812-47.3633C75.6348-37.4512 72.0215-30.0781 68.1641-25.0488L73.584-25.0488C82.9102-25.0488 90.0879-35.0098 90.0879-47.8027Z"/>
  </g>
  <g id="Regular-S" transform="matrix(1 0 0 1 1401.68 696)">
   <path d="M68.0664-46.8262C68.3105-61.4746 56.3965-72.6074 37.6953-72.7539L32.2266-72.8027C27.002-72.8516 23.1934-72.4609 20.9961-71.875C17.8711-71.0449 14.7949-69.1895 14.7949-65.3809C14.7949-63.8184 15.1855-62.6953 15.7227-61.8164C16.0156-61.3281 15.9668-60.8887 15.4785-60.6934C13.0371-59.7168 10.9375-57.373 10.9375-54.1504C10.9375-52.3438 11.4746-50.7324 12.3535-49.6094C12.793-49.0234 12.7441-48.4863 12.0117-48.0469C10.2051-47.0215 8.93555-44.7754 8.93555-42.1387C8.93555-40.2832 9.52148-38.2812 10.5957-37.3047C11.2305-36.7188 11.1328-36.3281 10.4492-35.791C9.17969-34.7168 8.39844-32.8613 8.39844-30.6152C8.39844-26.709 11.4258-23.584 15.3809-23.584L29.541-23.584C33.1543-23.584 35.5469-21.7285 35.5469-18.75C35.5469-13.3789 28.8086-3.4668 28.8086 3.61328C28.8086 7.37305 31.2012 9.52148 34.375 9.52148C37.207 9.52148 38.623 7.56836 40.1855 4.54102C46.1914-7.08008 54.1504-16.5039 60.2051-24.6094C65.3809-31.4453 67.8711-37.3047 68.0664-46.8262ZM87.9395-47.1191C87.9395-58.9844 80.4199-68.9941 70.459-68.9941L63.8184-68.9941C70.8496-63.623 74.0234-55.6641 73.877-46.7285C73.7305-36.7676 69.873-29.4434 66.2598-25.0488L71.9727-25.0488C80.957-25.0488 87.9395-34.7656 87.9395-47.1191Z"/>
  </g>
  <g id="Light-S" transform="matrix(1 0 0 1 1106.67 696)">
   <path d="M66.1133-45.5566C66.3086-59.8633 54.7363-70.7031 36.5234-70.8496L31.2012-70.8984C26.123-70.9473 22.3633-70.5566 20.2637-70.0195C17.2363-69.2383 14.209-67.3828 14.209-63.6719C14.209-62.1582 14.5996-61.0352 15.1367-60.2051C15.4297-59.7168 15.3809-59.3262 14.8926-59.1309C12.4512-58.1055 10.4492-55.8594 10.4492-52.7344C10.4492-50.9766 10.9863-49.4141 11.8164-48.291C12.2559-47.7051 12.1582-47.2168 11.4746-46.7773C9.7168-45.752 8.49609-43.5547 8.49609-41.0156C8.49609-39.209 9.08203-37.2559 10.1074-36.3281C10.7422-35.7422 10.6445-35.3516 9.96094-34.8145C8.74023-33.7402 7.95898-31.9824 7.95898-29.7852C7.95898-25.9766 10.9375-22.9004 14.7949-22.9004L28.6133-22.9004C32.0801-22.9004 34.4238-21.0938 34.4238-18.2129C34.4238-12.9395 27.8809-3.32031 27.8809 3.61328C27.8809 7.22656 30.2246 9.375 33.252 9.375C36.084 9.375 37.4512 7.42188 38.9648 4.49219C44.7754-6.83594 52.5391-16.0156 58.4961-23.877C63.5254-30.5664 65.9668-36.3281 66.1133-45.5566ZM84.9121-45.8496C84.9121-57.4707 77.7344-67.1875 68.0176-67.1875L60.791-67.1875C67.9199-62.1094 71.1914-54.3457 71.0449-45.459C70.8984-35.498 67.0898-28.6133 63.7695-24.3652L69.4824-24.3652C78.2715-24.3652 84.9121-33.7891 84.9121-45.8496Z"/>
  </g>
  <g id="Thin-S" transform="matrix(1 0 0 1 812.233 696)">
   <path d="M63.5742-43.8965C63.623-57.7148 52.5879-68.2129 35.0098-68.3594L29.834-68.4082C24.9023-68.457 21.3379-68.0664 19.2383-67.5293C16.3574-66.7969 13.4277-64.9902 13.4277-61.377C13.4277-59.9609 13.8184-58.8867 14.3066-58.0566C14.5996-57.5684 14.5508-57.1777 14.1113-56.9824C11.7676-56.0059 9.81445-53.8574 9.81445-50.8301C9.81445-49.1699 10.3027-47.6562 11.1328-46.582C11.5723-45.9961 11.4746-45.5078 10.791-45.1172C9.08203-44.1406 7.91016-41.9922 7.91016-39.502C7.91016-37.793 8.44727-35.8887 9.52148-34.9609C10.1074-34.4727 9.96094-34.082 9.32617-33.5449C8.1543-32.5195 7.42188-30.8105 7.42188-28.6621C7.42188-25.0488 10.2539-22.0215 14.0137-22.0215L27.3438-22.0215C30.7129-22.0215 32.959-20.3125 32.959-17.5293C32.959-12.4023 26.6113-3.125 26.6113 3.56445C26.6113 7.08008 28.9062 9.13086 31.8359 9.13086C34.5215 9.13086 35.8887 7.27539 37.3535 4.44336C42.9199-6.54297 50.4883-15.3809 56.2012-22.998C61.084-29.4434 63.5254-34.9609 63.5742-43.8965ZM80.957-44.1895C80.957-55.4199 74.1699-64.7949 64.8438-64.7949L56.7383-64.7949C64.0625-60.0586 67.3828-52.6367 67.2363-43.7988C67.0898-33.7891 63.3789-27.5391 60.4492-23.4375L66.2598-23.4375C74.707-23.4375 80.957-32.5195 80.957-44.1895Z"/>
  </g>
  <g id="Ultralight-S" transform="matrix(1 0 0 1 516.694 696)">
   <path d="M62.2559-43.0664C62.2559-56.5918 51.4648-66.8945 34.1797-67.041L29.1504-67.0898C24.3164-67.1387 20.8008-66.7969 18.75-66.2598C15.918-65.5273 13.0371-63.7695 13.0371-60.2051C13.0371-58.7891 13.4277-57.7637 13.916-56.9336C14.209-56.4453 14.1602-56.1035 13.7207-55.9082C11.377-54.8828 9.47266-52.832 9.47266-49.9023C9.47266-48.1934 9.96094-46.7285 10.7422-45.6543C11.1816-45.0684 11.084-44.6289 10.4004-44.2383C8.74023-43.3105 7.61719-41.1621 7.61719-38.7695C7.61719-37.0117 8.1543-35.1562 9.17969-34.2773C9.76562-33.7891 9.61914-33.3984 8.98438-32.8613C7.86133-31.8848 7.12891-30.2246 7.12891-28.125C7.12891-24.5117 9.91211-21.582 13.623-21.582L26.709-21.582C29.9805-21.582 32.2266-19.873 32.2266-17.1875C32.2266-12.1094 25.9766-3.02734 25.9766 3.56445C25.9766 6.98242 28.2227 9.0332 31.1035 9.0332C33.7402 9.0332 35.0586 7.17773 36.5234 4.39453C41.9922-6.39648 49.4141-15.0879 55.0293-22.5098C59.8145-28.8574 62.2559-34.2773 62.2559-43.0664ZM78.9062-43.3594C78.9062-54.3457 72.3633-63.5742 63.1836-63.5742L54.6875-63.5742C62.0605-59.0332 65.4785-51.709 65.332-42.9688C65.1855-32.9102 61.4746-27.002 58.7891-22.9492L64.5508-22.9492C72.8516-22.9492 78.9062-31.8848 78.9062-43.3594Z"/>
  </g>
 </g>
</svg>
